<svg width="100" height="100" viewBox="0 0 100 100" fill="none" xmlns="http://www.w3.org/2000/svg">
<circle cx="50" cy="50" r="49.5" fill="#B69DF8" stroke="white"/>
<path d="M0.5 50C0.5 22.6619 22.6619 0.500015 50 0.500015C77.3381 0.500015 99.5 22.6619 99.5 50C99.5 53.4376 99.2002 55.777 98.6543 57.2695C98.3831 58.0109 98.061 58.5152 97.7104 58.8432C97.3673 59.1642 96.978 59.3346 96.5267 59.3816C95.5848 59.4798 94.3365 59.0445 92.7403 58.1169C91.1643 57.201 89.3441 55.8636 87.2837 54.2912C86.7471 53.8817 86.1951 53.4569 85.6279 53.0204C81.8567 50.1184 77.4185 46.7031 72.4511 43.8858C66.7323 40.6424 60.2719 38.1666 53.25 38.1666C46.2327 38.1666 39.3703 40.6396 33.052 43.8757C28.0864 46.419 23.422 49.4532 19.2684 52.1552C18.1401 52.8892 17.0496 53.5986 16.0009 54.267C13.5375 55.8372 11.3112 57.1776 9.35493 58.0967C7.38608 59.0216 5.75981 59.4855 4.47783 59.3806C3.84856 59.3291 3.307 59.1409 2.84119 58.8034C2.37325 58.4644 1.95589 57.9558 1.6065 57.2255C0.900558 55.7501 0.5 53.4292 0.5 50Z" fill="#EFB8C8" stroke="white"/>
<path d="M28.8984 15.6016V22H27.6899V15.6016H28.8984ZM31.2539 18.2603V22H30.0938V17.2451H31.1836L31.2539 18.2603ZM31.0693 19.4512H30.7266C30.7295 19.1055 30.7764 18.792 30.8672 18.5107C30.958 18.2295 31.0854 17.9878 31.2495 17.7856C31.4165 17.5835 31.6143 17.4282 31.8428 17.3198C32.0713 17.2114 32.3262 17.1572 32.6074 17.1572C32.8359 17.1572 33.0425 17.1895 33.2271 17.2539C33.4116 17.3184 33.5698 17.4209 33.7017 17.5615C33.8364 17.7021 33.939 17.8867 34.0093 18.1152C34.0825 18.3408 34.1191 18.6191 34.1191 18.9502V22H32.9502V18.9414C32.9502 18.7246 32.918 18.5532 32.8535 18.4272C32.792 18.3013 32.7012 18.2119 32.5811 18.1592C32.4639 18.1064 32.3188 18.0801 32.146 18.0801C31.9673 18.0801 31.8105 18.1167 31.6758 18.1899C31.5439 18.2603 31.4326 18.3584 31.3418 18.4844C31.2539 18.6104 31.1865 18.7554 31.1396 18.9194C31.0928 19.0835 31.0693 19.2607 31.0693 19.4512ZM37.3931 17.2451V18.0801H34.6685V17.2451H37.3931ZM35.3979 16.0762H36.5625V20.6289C36.5625 20.7695 36.5815 20.8779 36.6196 20.9541C36.6577 21.0303 36.7148 21.0815 36.791 21.1079C36.8672 21.1343 36.958 21.1475 37.0635 21.1475C37.1396 21.1475 37.21 21.1431 37.2744 21.1343C37.3389 21.1255 37.3931 21.1167 37.437 21.1079L37.4414 21.978C37.3447 22.0103 37.2349 22.0366 37.1118 22.0571C36.9917 22.0776 36.8555 22.0879 36.7031 22.0879C36.4424 22.0879 36.2139 22.0439 36.0176 21.9561C35.8213 21.8652 35.6689 21.7202 35.5605 21.521C35.4521 21.3188 35.3979 21.0522 35.3979 20.7212V16.0762ZM40.9966 20.8706V17.2451H42.1655V22H41.0669L40.9966 20.8706ZM41.146 19.8862L41.5063 19.8774C41.5063 20.1968 41.4712 20.4912 41.4009 20.7607C41.3306 21.0303 41.2207 21.2646 41.0713 21.4639C40.9248 21.6602 40.7388 21.814 40.5132 21.9253C40.2876 22.0337 40.021 22.0879 39.7134 22.0879C39.479 22.0879 39.2651 22.0557 39.0718 21.9912C38.8784 21.9238 38.7114 21.8198 38.5708 21.6792C38.4331 21.5356 38.3262 21.3525 38.25 21.1299C38.1738 20.9043 38.1357 20.6333 38.1357 20.3169V17.2451H39.2959V20.3257C39.2959 20.4839 39.3135 20.6157 39.3486 20.7212C39.3867 20.8267 39.438 20.9131 39.5024 20.9805C39.5698 21.0449 39.6475 21.0918 39.7354 21.1211C39.8262 21.1475 39.9229 21.1606 40.0254 21.1606C40.3066 21.1606 40.5278 21.105 40.689 20.9937C40.853 20.8794 40.9702 20.7271 41.0405 20.5366C41.1108 20.3433 41.146 20.1265 41.146 19.8862ZM44.4243 17.2451V22H43.2598V17.2451H44.4243ZM43.1807 16.0015C43.1807 15.8286 43.2393 15.6851 43.3564 15.5708C43.4766 15.4565 43.6377 15.3994 43.8398 15.3994C44.042 15.3994 44.2017 15.4565 44.3188 15.5708C44.439 15.6851 44.499 15.8286 44.499 16.0015C44.499 16.1714 44.439 16.3135 44.3188 16.4277C44.2017 16.542 44.042 16.5991 43.8398 16.5991C43.6377 16.5991 43.4766 16.542 43.3564 16.4277C43.2393 16.3135 43.1807 16.1714 43.1807 16.0015ZM47.7817 17.2451V18.0801H45.0571V17.2451H47.7817ZM45.7866 16.0762H46.9512V20.6289C46.9512 20.7695 46.9702 20.8779 47.0083 20.9541C47.0464 21.0303 47.1035 21.0815 47.1797 21.1079C47.2559 21.1343 47.3467 21.1475 47.4521 21.1475C47.5283 21.1475 47.5986 21.1431 47.6631 21.1343C47.7275 21.1255 47.7817 21.1167 47.8257 21.1079L47.8301 21.978C47.7334 22.0103 47.6235 22.0366 47.5005 22.0571C47.3804 22.0776 47.2441 22.0879 47.0918 22.0879C46.8311 22.0879 46.6025 22.0439 46.4062 21.9561C46.21 21.8652 46.0576 21.7202 45.9492 21.521C45.8408 21.3188 45.7866 21.0522 45.7866 20.7212V16.0762ZM49.7856 17.2451V22H48.6211V17.2451H49.7856ZM48.542 16.0015C48.542 15.8286 48.6006 15.6851 48.7178 15.5708C48.8379 15.4565 48.999 15.3994 49.2012 15.3994C49.4033 15.3994 49.563 15.4565 49.6802 15.5708C49.8003 15.6851 49.8604 15.8286 49.8604 16.0015C49.8604 16.1714 49.8003 16.3135 49.6802 16.4277C49.563 16.542 49.4033 16.5991 49.2012 16.5991C48.999 16.5991 48.8379 16.542 48.7178 16.4277C48.6006 16.3135 48.542 16.1714 48.542 16.0015ZM52.4707 21.1211L53.5781 17.2451H54.791L53.1606 22H52.4224L52.4707 21.1211ZM51.6621 17.2451L52.7827 21.1299L52.8223 22H52.0796L50.4448 17.2451H51.6621Z" fill="white"/>
<path d="M64.8516 35.0508V36H61.4502V35.0508H64.8516ZM61.8193 29.6016V36H60.6108V29.6016H61.8193ZM64.4077 32.2427V33.1699H61.4502V32.2427H64.4077ZM64.8384 29.6016V30.5552H61.4502V29.6016H64.8384ZM67.0444 36H65.8755V30.8057C65.8755 30.4482 65.9443 30.1479 66.082 29.9048C66.2197 29.6587 66.416 29.4727 66.6709 29.3467C66.9258 29.2207 67.2261 29.1577 67.5718 29.1577C67.686 29.1577 67.7944 29.165 67.897 29.1797C68.0024 29.1943 68.1064 29.2148 68.209 29.2412L68.187 30.1245C68.1313 30.1099 68.0698 30.0996 68.0024 30.0938C67.938 30.0879 67.8662 30.085 67.7871 30.085C67.6289 30.085 67.4941 30.1128 67.3828 30.1685C67.2715 30.2241 67.1865 30.3062 67.1279 30.4146C67.0723 30.52 67.0444 30.6504 67.0444 30.8057V36ZM68.0068 31.2451V32.0801H65.1592V31.2451H68.0068ZM70.2437 36H69.0747V30.8057C69.0747 30.4482 69.1436 30.1479 69.2812 29.9048C69.4189 29.6587 69.6152 29.4727 69.8701 29.3467C70.125 29.2207 70.4253 29.1577 70.771 29.1577C70.8853 29.1577 70.9937 29.165 71.0962 29.1797C71.2017 29.1943 71.3057 29.2148 71.4082 29.2412L71.3862 30.1245C71.3306 30.1099 71.269 30.0996 71.2017 30.0938C71.1372 30.0879 71.0654 30.085 70.9863 30.085C70.8281 30.085 70.6934 30.1128 70.582 30.1685C70.4707 30.2241 70.3857 30.3062 70.3271 30.4146C70.2715 30.52 70.2437 30.6504 70.2437 30.8057V36ZM71.2061 31.2451V32.0801H68.3584V31.2451H71.2061ZM73.9526 36.0879C73.5923 36.0879 73.2686 36.0293 72.9814 35.9121C72.6943 35.7949 72.4497 35.6323 72.2476 35.4243C72.0483 35.2134 71.8945 34.9688 71.7861 34.6904C71.6807 34.4092 71.6279 34.1074 71.6279 33.7852V33.6094C71.6279 33.2432 71.6807 32.9106 71.7861 32.6118C71.8916 32.3101 72.041 32.0508 72.2344 31.834C72.4277 31.6172 72.6592 31.4502 72.9287 31.333C73.1982 31.2158 73.4956 31.1572 73.8208 31.1572C74.1577 31.1572 74.4551 31.2144 74.7129 31.3286C74.9707 31.4399 75.186 31.5981 75.3589 31.8032C75.5317 32.0083 75.6621 32.2544 75.75 32.5415C75.8379 32.8257 75.8818 33.1406 75.8818 33.4863V33.9741H72.1553V33.1743H74.7393V33.0864C74.7334 32.9019 74.6982 32.7334 74.6338 32.5811C74.5693 32.4258 74.4697 32.3027 74.335 32.2119C74.2002 32.1182 74.0259 32.0713 73.812 32.0713C73.6392 32.0713 73.4883 32.1094 73.3594 32.1855C73.2334 32.2588 73.1279 32.3643 73.043 32.502C72.9609 32.6367 72.8994 32.7979 72.8584 32.9854C72.8174 33.1729 72.7969 33.3809 72.7969 33.6094V33.7852C72.7969 33.9844 72.8232 34.1689 72.876 34.3389C72.9316 34.5088 73.0122 34.6567 73.1177 34.7827C73.2261 34.9058 73.355 35.0024 73.5044 35.0728C73.6567 35.1401 73.8296 35.1738 74.0229 35.1738C74.2661 35.1738 74.4858 35.127 74.6821 35.0332C74.8813 34.9365 75.0542 34.7944 75.2007 34.6069L75.7852 35.2134C75.6855 35.3599 75.5508 35.5005 75.3809 35.6353C75.2139 35.77 75.0117 35.8799 74.7744 35.9648C74.5371 36.0469 74.2632 36.0879 73.9526 36.0879ZM77.8198 29.2456V36H76.6597V29.2456H77.8198ZM80.7993 31.2451L78.7295 33.5698L77.6089 34.708L77.2397 33.8071L78.1055 32.7173L79.3975 31.2451H80.7993ZM79.6128 36L78.1406 33.7852L78.9141 33.0337L80.9575 36H79.6128ZM83.6646 31.2451V32.0801H80.9399V31.2451H83.6646ZM81.6694 30.0762H82.834V34.6289C82.834 34.7695 82.853 34.8779 82.8911 34.9541C82.9292 35.0303 82.9863 35.0815 83.0625 35.1079C83.1387 35.1343 83.2295 35.1475 83.335 35.1475C83.4111 35.1475 83.4814 35.1431 83.5459 35.1343C83.6104 35.1255 83.6646 35.1167 83.7085 35.1079L83.7129 35.978C83.6162 36.0103 83.5063 36.0366 83.3833 36.0571C83.2632 36.0776 83.127 36.0879 82.9746 36.0879C82.7139 36.0879 82.4854 36.0439 82.2891 35.9561C82.0928 35.8652 81.9404 35.7202 81.832 35.521C81.7236 35.3188 81.6694 35.0522 81.6694 34.7212V30.0762ZM85.6685 31.2451V36H84.5039V31.2451H85.6685ZM84.4248 30.0015C84.4248 29.8286 84.4834 29.6851 84.6006 29.5708C84.7207 29.4565 84.8818 29.3994 85.084 29.3994C85.2861 29.3994 85.4458 29.4565 85.563 29.5708C85.6831 29.6851 85.7432 29.8286 85.7432 30.0015C85.7432 30.1714 85.6831 30.3135 85.563 30.4277C85.4458 30.542 85.2861 30.5991 85.084 30.5991C84.8818 30.5991 84.7207 30.542 84.6006 30.4277C84.4834 30.3135 84.4248 30.1714 84.4248 30.0015ZM88.3535 35.1211L89.4609 31.2451H90.6738L89.0435 36H88.3052L88.3535 35.1211ZM87.5449 31.2451L88.6655 35.1299L88.7051 36H87.9624L86.3276 31.2451H87.5449Z" fill="white"/>
<path d="M10.8516 40.0508V41H7.4502V40.0508H10.8516ZM7.81934 34.6016V41H6.61084V34.6016H7.81934ZM10.4077 37.2427V38.1699H7.4502V37.2427H10.4077ZM10.8384 34.6016V35.5552H7.4502V34.6016H10.8384ZM12.8335 36.2451V41H11.6689V36.2451H12.8335ZM11.5898 35.0015C11.5898 34.8286 11.6484 34.6851 11.7656 34.5708C11.8857 34.4565 12.0469 34.3994 12.249 34.3994C12.4512 34.3994 12.6108 34.4565 12.728 34.5708C12.8481 34.6851 12.9082 34.8286 12.9082 35.0015C12.9082 35.1714 12.8481 35.3135 12.728 35.4277C12.6108 35.542 12.4512 35.5991 12.249 35.5991C12.0469 35.5991 11.8857 35.542 11.7656 35.4277C11.6484 35.3135 11.5898 35.1714 11.5898 35.0015ZM15.0791 37.2603V41H13.9189V36.2451H15.0088L15.0791 37.2603ZM14.8945 38.4512H14.5518C14.5547 38.1055 14.6016 37.792 14.6924 37.5107C14.7832 37.2295 14.9106 36.9878 15.0747 36.7856C15.2417 36.5835 15.4395 36.4282 15.668 36.3198C15.8965 36.2114 16.1514 36.1572 16.4326 36.1572C16.6611 36.1572 16.8677 36.1895 17.0522 36.2539C17.2368 36.3184 17.395 36.4209 17.5269 36.5615C17.6616 36.7021 17.7642 36.8867 17.8345 37.1152C17.9077 37.3408 17.9443 37.6191 17.9443 37.9502V41H16.7754V37.9414C16.7754 37.7246 16.7432 37.5532 16.6787 37.4272C16.6172 37.3013 16.5264 37.2119 16.4062 37.1592C16.2891 37.1064 16.144 37.0801 15.9712 37.0801C15.7925 37.0801 15.6357 37.1167 15.501 37.1899C15.3691 37.2603 15.2578 37.3584 15.167 37.4844C15.0791 37.6104 15.0117 37.7554 14.9648 37.9194C14.918 38.0835 14.8945 38.2607 14.8945 38.4512ZM20.4888 41H19.3198V35.8057C19.3198 35.4482 19.3887 35.1479 19.5264 34.9048C19.6641 34.6587 19.8604 34.4727 20.1152 34.3467C20.3701 34.2207 20.6704 34.1577 21.0161 34.1577C21.1304 34.1577 21.2388 34.165 21.3413 34.1797C21.4468 34.1943 21.5508 34.2148 21.6533 34.2412L21.6313 35.1245C21.5757 35.1099 21.5142 35.0996 21.4468 35.0938C21.3823 35.0879 21.3105 35.085 21.2314 35.085C21.0732 35.085 20.9385 35.1128 20.8271 35.1685C20.7158 35.2241 20.6309 35.3062 20.5723 35.4146C20.5166 35.52 20.4888 35.6504 20.4888 35.8057V41ZM21.4512 36.2451V37.0801H18.6035V36.2451H21.4512ZM24.7866 39.9893V37.7964C24.7866 37.6353 24.7588 37.4961 24.7031 37.3789C24.6475 37.2617 24.5625 37.1709 24.4482 37.1064C24.334 37.042 24.189 37.0098 24.0132 37.0098C23.8579 37.0098 23.7217 37.0361 23.6045 37.0889C23.4902 37.1416 23.4023 37.2163 23.3408 37.313C23.2793 37.4067 23.2485 37.5151 23.2485 37.6382H22.084C22.084 37.4419 22.1309 37.2559 22.2246 37.0801C22.3184 36.9014 22.4517 36.7432 22.6245 36.6055C22.8003 36.4648 23.0098 36.355 23.2529 36.2759C23.499 36.1968 23.7744 36.1572 24.0791 36.1572C24.4395 36.1572 24.7603 36.2188 25.0415 36.3418C25.3257 36.4619 25.5483 36.6436 25.7095 36.8867C25.8735 37.1299 25.9556 37.436 25.9556 37.8052V39.8794C25.9556 40.1167 25.9702 40.3203 25.9995 40.4902C26.0317 40.6572 26.0786 40.8022 26.1401 40.9253V41H24.958C24.9023 40.8799 24.8599 40.7275 24.8306 40.543C24.8013 40.3555 24.7866 40.1709 24.7866 39.9893ZM24.9492 38.104L24.958 38.7939H24.2241C24.0425 38.7939 23.8828 38.813 23.7451 38.8511C23.6074 38.8862 23.4946 38.939 23.4067 39.0093C23.3188 39.0767 23.2529 39.1587 23.209 39.2554C23.165 39.3491 23.1431 39.4561 23.1431 39.5762C23.1431 39.6934 23.1694 39.7988 23.2222 39.8926C23.2778 39.9863 23.3569 40.061 23.4595 40.1167C23.5649 40.1694 23.688 40.1958 23.8286 40.1958C24.0337 40.1958 24.2124 40.1548 24.3647 40.0728C24.5171 39.9878 24.6357 39.8853 24.7207 39.7651C24.8057 39.645 24.8511 39.5308 24.8569 39.4224L25.1909 39.9233C25.1499 40.0435 25.0884 40.1709 25.0063 40.3057C24.9243 40.4404 24.8188 40.5664 24.6899 40.6836C24.561 40.8008 24.4058 40.8975 24.2241 40.9736C24.0425 41.0498 23.8315 41.0879 23.5913 41.0879C23.2837 41.0879 23.0083 41.0264 22.7651 40.9033C22.522 40.7803 22.3301 40.6118 22.1895 40.3979C22.0488 40.1841 21.9785 39.9409 21.9785 39.6685C21.9785 39.4165 22.0254 39.1938 22.1191 39.0005C22.2129 38.8071 22.3521 38.6445 22.5366 38.5127C22.7212 38.3779 22.9497 38.2769 23.2222 38.2095C23.4976 38.1392 23.8125 38.104 24.167 38.104H24.9492ZM28.9526 40.1738C29.1167 40.1738 29.2632 40.1416 29.3921 40.0771C29.521 40.0127 29.6235 39.9219 29.6997 39.8047C29.7788 39.6875 29.8213 39.5513 29.8271 39.396H30.9214C30.9155 39.7183 30.8247 40.0068 30.6489 40.2617C30.4731 40.5166 30.2388 40.7188 29.9458 40.8682C29.6558 41.0146 29.3306 41.0879 28.9702 41.0879C28.604 41.0879 28.2847 41.0264 28.0122 40.9033C27.7397 40.7803 27.5127 40.6089 27.3311 40.3892C27.1523 40.1694 27.0176 39.9146 26.9268 39.6245C26.8389 39.3345 26.7949 39.0239 26.7949 38.6929V38.5522C26.7949 38.2212 26.8389 37.9106 26.9268 37.6206C27.0176 37.3306 27.1523 37.0757 27.3311 36.856C27.5127 36.6362 27.7397 36.4648 28.0122 36.3418C28.2847 36.2188 28.6025 36.1572 28.9658 36.1572C29.3496 36.1572 29.6865 36.2319 29.9766 36.3813C30.2695 36.5308 30.498 36.7417 30.6621 37.0142C30.8291 37.2866 30.9155 37.6074 30.9214 37.9766H29.8271C29.8213 37.8066 29.7832 37.6543 29.7129 37.5195C29.6426 37.3848 29.543 37.2764 29.4141 37.1943C29.2852 37.1123 29.1284 37.0713 28.9438 37.0713C28.7476 37.0713 28.5835 37.1123 28.4517 37.1943C28.3228 37.2764 28.2217 37.3892 28.1484 37.5327C28.0781 37.6733 28.0283 37.8315 27.999 38.0073C27.9727 38.1802 27.9595 38.3618 27.9595 38.5522V38.6929C27.9595 38.8862 27.9727 39.0708 27.999 39.2466C28.0283 39.4224 28.0781 39.5806 28.1484 39.7212C28.2217 39.8589 28.3228 39.9688 28.4517 40.0508C28.5835 40.1328 28.7505 40.1738 28.9526 40.1738ZM32.833 34.25V41H31.6685V34.25H32.833ZM32.6484 38.4512H32.3057C32.3057 38.1201 32.3496 37.8154 32.4375 37.5371C32.5254 37.2588 32.6499 37.0171 32.811 36.812C32.9722 36.604 33.1641 36.4429 33.3867 36.3286C33.6123 36.2144 33.8613 36.1572 34.1338 36.1572C34.3682 36.1572 34.5806 36.1909 34.771 36.2583C34.9644 36.3228 35.1299 36.4268 35.2676 36.5703C35.4053 36.7139 35.5107 36.9014 35.584 37.1328C35.6602 37.3613 35.6982 37.6396 35.6982 37.9678V41H34.5293V37.959C34.5293 37.7393 34.4971 37.5664 34.4326 37.4404C34.3682 37.3115 34.2759 37.2192 34.1558 37.1636C34.0386 37.1079 33.8936 37.0801 33.7207 37.0801C33.5332 37.0801 33.3721 37.1167 33.2373 37.1899C33.1025 37.2603 32.9912 37.3584 32.9033 37.4844C32.8184 37.6104 32.7539 37.7554 32.71 37.9194C32.6689 38.0835 32.6484 38.2607 32.6484 38.4512Z" fill="white"/>
<mask id="path-6-outside-1_60_758" maskUnits="userSpaceOnUse" x="49" y="52" width="20" height="28" fill="black">
<rect fill="white" x="49" y="52" width="20" height="28"/>
<path d="M59.1992 67.4336H52.6777L52.6426 64.2168H58.3379C59.2988 64.2168 60.1133 64.0762 60.7812 63.7949C61.4609 63.502 61.9766 63.0859 62.3281 62.5469C62.6797 61.9961 62.8555 61.334 62.8555 60.5605C62.8555 59.7051 62.6914 59.0078 62.3633 58.4688C62.0352 57.9297 61.5312 57.5371 60.8516 57.291C60.1836 57.0449 59.3281 56.9219 58.2852 56.9219H54.0137V79H49.6016V53.4062H58.2852C59.6914 53.4062 60.9453 53.541 62.0469 53.8105C63.1602 54.0801 64.1035 54.502 64.877 55.0762C65.6621 55.6387 66.2539 56.3535 66.6523 57.2207C67.0625 58.0879 67.2676 59.1191 67.2676 60.3145C67.2676 61.3691 67.0156 62.3359 66.5117 63.2148C66.0078 64.082 65.2637 64.791 64.2793 65.3418C63.2949 65.8926 62.0703 66.2207 60.6055 66.3262L59.1992 67.4336ZM59.0059 79H51.2891L53.2754 75.502H59.0059C60.002 75.502 60.834 75.3379 61.502 75.0098C62.1699 74.6699 62.668 74.207 62.9961 73.6211C63.3359 73.0234 63.5059 72.3262 63.5059 71.5293C63.5059 70.6973 63.3594 69.9766 63.0664 69.3672C62.7734 68.7461 62.3105 68.2715 61.6777 67.9434C61.0449 67.6035 60.2188 67.4336 59.1992 67.4336H54.2422L54.2773 64.2168H60.7285L61.7305 65.4297C63.1367 65.4766 64.291 65.7871 65.1934 66.3613C66.1074 66.9355 66.7871 67.6797 67.2324 68.5938C67.6777 69.5078 67.9004 70.4922 67.9004 71.5469C67.9004 73.1758 67.543 74.541 66.8281 75.6426C66.125 76.7441 65.1113 77.582 63.7871 78.1562C62.4629 78.7188 60.8691 79 59.0059 79Z"/>
</mask>
<path d="M59.1992 67.4336H52.6777L52.6426 64.2168H58.3379C59.2988 64.2168 60.1133 64.0762 60.7812 63.7949C61.4609 63.502 61.9766 63.0859 62.3281 62.5469C62.6797 61.9961 62.8555 61.334 62.8555 60.5605C62.8555 59.7051 62.6914 59.0078 62.3633 58.4688C62.0352 57.9297 61.5312 57.5371 60.8516 57.291C60.1836 57.0449 59.3281 56.9219 58.2852 56.9219H54.0137V79H49.6016V53.4062H58.2852C59.6914 53.4062 60.9453 53.541 62.0469 53.8105C63.1602 54.0801 64.1035 54.502 64.877 55.0762C65.6621 55.6387 66.2539 56.3535 66.6523 57.2207C67.0625 58.0879 67.2676 59.1191 67.2676 60.3145C67.2676 61.3691 67.0156 62.3359 66.5117 63.2148C66.0078 64.082 65.2637 64.791 64.2793 65.3418C63.2949 65.8926 62.0703 66.2207 60.6055 66.3262L59.1992 67.4336ZM59.0059 79H51.2891L53.2754 75.502H59.0059C60.002 75.502 60.834 75.3379 61.502 75.0098C62.1699 74.6699 62.668 74.207 62.9961 73.6211C63.3359 73.0234 63.5059 72.3262 63.5059 71.5293C63.5059 70.6973 63.3594 69.9766 63.0664 69.3672C62.7734 68.7461 62.3105 68.2715 61.6777 67.9434C61.0449 67.6035 60.2188 67.4336 59.1992 67.4336H54.2422L54.2773 64.2168H60.7285L61.7305 65.4297C63.1367 65.4766 64.291 65.7871 65.1934 66.3613C66.1074 66.9355 66.7871 67.6797 67.2324 68.5938C67.6777 69.5078 67.9004 70.4922 67.9004 71.5469C67.9004 73.1758 67.543 74.541 66.8281 75.6426C66.125 76.7441 65.1113 77.582 63.7871 78.1562C62.4629 78.7188 60.8691 79 59.0059 79Z" fill="#EFB8C8"/>
<path d="M59.1992 67.4336V67.9336H59.3725L59.5086 67.8264L59.1992 67.4336ZM52.6777 67.4336L52.1778 67.4391L52.1832 67.9336H52.6777V67.4336ZM52.6426 64.2168V63.7168H52.1371L52.1426 64.2223L52.6426 64.2168ZM60.7812 63.7949L60.9753 64.2558L60.9792 64.2541L60.7812 63.7949ZM62.3281 62.5469L62.747 62.82L62.7496 62.8159L62.3281 62.5469ZM60.8516 57.291L60.6787 57.7602L60.6813 57.7611L60.8516 57.291ZM54.0137 56.9219V56.4219H53.5137V56.9219H54.0137ZM54.0137 79V79.5H54.5137V79H54.0137ZM49.6016 79H49.1016V79.5H49.6016V79ZM49.6016 53.4062V52.9062H49.1016V53.4062H49.6016ZM62.0469 53.8105L61.928 54.2962L61.9292 54.2965L62.0469 53.8105ZM64.877 55.0762L64.5789 55.4777L64.5858 55.4826L64.877 55.0762ZM66.6523 57.2207L66.198 57.4295L66.2004 57.4345L66.6523 57.2207ZM66.5117 63.2148L66.944 63.4661L66.9455 63.4635L66.5117 63.2148ZM60.6055 66.3262L60.5696 65.8275L60.4166 65.8385L60.2961 65.9334L60.6055 66.3262ZM51.2891 79L50.8543 78.7531L50.4302 79.5H51.2891V79ZM53.2754 75.502V75.002H52.9843L52.8406 75.2551L53.2754 75.502ZM61.502 75.0098L61.7224 75.4586L61.7287 75.4554L61.502 75.0098ZM62.9961 73.6211L62.5614 73.3739L62.5598 73.3768L62.9961 73.6211ZM63.0664 69.3672L62.6142 69.5805L62.6158 69.5838L63.0664 69.3672ZM61.6777 67.9434L61.4411 68.3839L61.4476 68.3872L61.6777 67.9434ZM54.2422 67.4336L53.7422 67.4281L53.7367 67.9336H54.2422V67.4336ZM54.2773 64.2168V63.7168H53.7828L53.7774 64.2113L54.2773 64.2168ZM60.7285 64.2168L61.114 63.8984L60.964 63.7168H60.7285V64.2168ZM61.7305 65.4297L61.345 65.7481L61.4885 65.9219L61.7138 65.9294L61.7305 65.4297ZM65.1934 66.3613L64.9249 66.7832L64.9274 66.7847L65.1934 66.3613ZM66.8281 75.6426L66.4087 75.3704L66.4067 75.3736L66.8281 75.6426ZM63.7871 78.1562L63.9826 78.6165L63.986 78.615L63.7871 78.1562ZM59.1992 66.9336H52.6777V67.9336H59.1992V66.9336ZM53.1777 67.4281L53.1425 64.2113L52.1426 64.2223L52.1778 67.4391L53.1777 67.4281ZM52.6426 64.7168H58.3379V63.7168H52.6426V64.7168ZM58.3379 64.7168C59.3449 64.7168 60.2294 64.5698 60.9753 64.2557L60.5872 63.3341C59.9972 63.5826 59.2528 63.7168 58.3379 63.7168V64.7168ZM60.9792 64.2541C61.7352 63.9282 62.3339 63.4533 62.7469 62.82L61.9093 62.2737C61.6192 62.7186 61.1866 63.0757 60.5833 63.3358L60.9792 64.2541ZM62.7496 62.8159C63.1612 62.171 63.3555 61.4115 63.3555 60.5605H62.3555C62.3555 61.2564 62.1982 61.8212 61.9067 62.2779L62.7496 62.8159ZM63.3555 60.5605C63.3555 59.6449 63.1803 58.8493 62.7904 58.2088L61.9362 58.7287C62.2025 59.1663 62.3555 59.7653 62.3555 60.5605H63.3555ZM62.7904 58.2088C62.3946 57.5585 61.7921 57.0998 61.0218 56.8209L60.6813 57.7611C61.2704 57.9744 61.6757 58.3008 61.9362 58.7287L62.7904 58.2088ZM61.0244 56.8218C60.2817 56.5482 59.3622 56.4219 58.2852 56.4219V57.4219C59.2941 57.4219 60.0854 57.5416 60.6787 57.7602L61.0244 56.8218ZM58.2852 56.4219H54.0137V57.4219H58.2852V56.4219ZM53.5137 56.9219V79H54.5137V56.9219H53.5137ZM54.0137 78.5H49.6016V79.5H54.0137V78.5ZM50.1016 79V53.4062H49.1016V79H50.1016ZM49.6016 53.9062H58.2852V52.9062H49.6016V53.9062ZM58.2852 53.9062C59.6605 53.9062 60.8733 54.0382 61.928 54.2962L62.1657 53.3249C61.0173 53.0439 59.7223 52.9062 58.2852 52.9062V53.9062ZM61.9292 54.2965C62.9894 54.5532 63.8685 54.9502 64.5789 55.4776L65.175 54.6747C64.3385 54.0537 63.3309 53.607 62.1645 53.3246L61.9292 54.2965ZM64.5858 55.4826C65.3012 55.9952 65.8363 56.6422 66.198 57.4295L67.1067 57.012C66.6715 56.0648 66.023 55.2822 65.1681 54.6697L64.5858 55.4826ZM66.2004 57.4345C66.5721 58.2205 66.7676 59.1754 66.7676 60.3145H67.7676C67.7676 59.0629 67.5529 57.9553 67.1043 57.0069L66.2004 57.4345ZM66.7676 60.3145C66.7676 61.2856 66.5366 62.1661 66.078 62.9662L66.9455 63.4635C67.4946 62.5058 67.7676 61.4527 67.7676 60.3145H66.7676ZM66.0794 62.9636C65.6259 63.7441 64.9513 64.3928 64.0352 64.9055L64.5234 65.7781C65.576 65.1892 66.3897 64.42 66.944 63.4661L66.0794 62.9636ZM64.0352 64.9055C63.131 65.4113 61.9825 65.7257 60.5696 65.8275L60.6414 66.8249C62.1582 66.7157 63.4588 66.3738 64.5234 65.7781L64.0352 64.9055ZM60.2961 65.9334L58.8899 67.0408L59.5086 67.8264L60.9148 66.719L60.2961 65.9334ZM59.0059 78.5H51.2891V79.5H59.0059V78.5ZM51.7239 79.2469L53.7102 75.7488L52.8406 75.2551L50.8543 78.7531L51.7239 79.2469ZM53.2754 76.002H59.0059V75.002H53.2754V76.002ZM59.0059 76.002C60.0537 76.002 60.9667 75.8298 61.7224 75.4585L61.2815 74.561C60.7013 74.846 59.9502 75.002 59.0059 75.002V76.002ZM61.7287 75.4554C62.4743 75.0761 63.0503 74.5475 63.4323 73.8654L62.5598 73.3768C62.2856 73.8665 61.8656 74.2638 61.2752 74.5641L61.7287 75.4554ZM63.4307 73.8682C63.8198 73.184 64.0059 72.3989 64.0059 71.5293H63.0059C63.0059 72.2534 62.8521 72.8629 62.5614 73.3739L63.4307 73.8682ZM64.0059 71.5293C64.0059 70.6392 63.8491 69.8413 63.517 69.1505L62.6158 69.5838C62.8696 70.1118 63.0059 70.7553 63.0059 71.5293H64.0059ZM63.5186 69.1539C63.177 68.4297 62.634 67.876 61.9079 67.4995L61.4476 68.3872C61.9871 68.667 62.3698 69.0625 62.6142 69.5805L63.5186 69.1539ZM61.9143 67.5029C61.1847 67.111 60.2688 66.9336 59.1992 66.9336V67.9336C60.1687 67.9336 60.9052 68.096 61.4412 68.3839L61.9143 67.5029ZM59.1992 66.9336H54.2422V67.9336H59.1992V66.9336ZM54.7422 67.4391L54.7773 64.2223L53.7774 64.2113L53.7422 67.4281L54.7422 67.4391ZM54.2773 64.7168H60.7285V63.7168H54.2773V64.7168ZM60.343 64.5352L61.345 65.7481L62.1159 65.1112L61.114 63.8984L60.343 64.5352ZM61.7138 65.9294C63.0581 65.9742 64.1182 66.2698 64.9249 66.7832L65.4618 65.9395C64.4638 65.3044 63.2153 64.9789 61.7471 64.93L61.7138 65.9294ZM64.9274 66.7847C65.7675 67.3125 66.3811 67.9879 66.7829 68.8127L67.6819 68.3748C67.1932 67.3715 66.4474 66.5586 65.4593 65.9379L64.9274 66.7847ZM66.7829 68.8127C67.1938 69.656 67.4004 70.5652 67.4004 71.5469H68.4004C68.4004 70.4192 68.1617 69.3596 67.6819 68.3748L66.7829 68.8127ZM67.4004 71.5469C67.4004 73.1024 67.0596 74.3674 66.4087 75.3704L67.2476 75.9148C68.0264 74.7146 68.4004 73.2491 68.4004 71.5469H67.4004ZM66.4067 75.3736C65.7627 76.3824 64.8309 77.1586 63.5882 77.6975L63.986 78.615C65.3917 78.0054 66.4873 77.1059 67.2496 75.9116L66.4067 75.3736ZM63.5916 77.696C62.3446 78.2258 60.8209 78.5 59.0059 78.5V79.5C60.9174 79.5 62.5812 79.2117 63.9826 78.6165L63.5916 77.696Z" fill="white" mask="url(#path-6-outside-1_60_758)"/>
<mask id="path-8-outside-2_60_758" maskUnits="userSpaceOnUse" x="34" y="52" width="22" height="28" fill="black">
<rect fill="white" x="34" y="52" width="22" height="28"/>
<path d="M39.0137 53.4062V79H34.6016V53.4062H39.0137ZM54.3945 53.4062L44.0234 65.7285L38.1172 71.9863L37.3438 67.6094L41.5625 62.4062L49.0156 53.4062H54.3945ZM49.6484 79L41.2285 66.8711L44.2695 63.8652L54.8867 79H49.6484Z"/>
</mask>
<path d="M39.0137 53.4062V79H34.6016V53.4062H39.0137ZM54.3945 53.4062L44.0234 65.7285L38.1172 71.9863L37.3438 67.6094L41.5625 62.4062L49.0156 53.4062H54.3945ZM49.6484 79L41.2285 66.8711L44.2695 63.8652L54.8867 79H49.6484Z" fill="#4F378B"/>
<path d="M39.0137 53.4062H39.5137V52.9062H39.0137V53.4062ZM39.0137 79V79.5H39.5137V79H39.0137ZM34.6016 79H34.1016V79.5H34.6016V79ZM34.6016 53.4062V52.9062H34.1016V53.4062H34.6016ZM54.3945 53.4062L54.7771 53.7282L55.4689 52.9062H54.3945V53.4062ZM44.0234 65.7285L44.3871 66.0717L44.3968 66.0614L44.406 66.0505L44.0234 65.7285ZM38.1172 71.9863L37.6248 72.0733L37.7979 73.053L38.4808 72.3295L38.1172 71.9863ZM37.3438 67.6094L36.9554 67.2945L36.8117 67.4717L36.8514 67.6964L37.3438 67.6094ZM41.5625 62.4062L41.1774 62.0873L41.1741 62.0913L41.5625 62.4062ZM49.0156 53.4062V52.9062H48.7805L48.6305 53.0873L49.0156 53.4062ZM49.6484 79L49.2377 79.2851L49.3869 79.5H49.6484V79ZM41.2285 66.8711L40.877 66.5155L40.5781 66.811L40.8178 67.1562L41.2285 66.8711ZM44.2695 63.8652L44.6789 63.5781L44.339 63.0936L43.918 63.5096L44.2695 63.8652ZM54.8867 79V79.5H55.8482L55.296 78.7129L54.8867 79ZM38.5137 53.4062V79H39.5137V53.4062H38.5137ZM39.0137 78.5H34.6016V79.5H39.0137V78.5ZM35.1016 79V53.4062H34.1016V79H35.1016ZM34.6016 53.9062H39.0137V52.9062H34.6016V53.9062ZM54.012 53.0843L43.6409 65.4065L44.406 66.0505L54.7771 53.7282L54.012 53.0843ZM43.6598 65.3853L37.7536 71.6431L38.4808 72.3295L44.3871 66.0717L43.6598 65.3853ZM38.6096 71.8993L37.8361 67.5224L36.8514 67.6964L37.6248 72.0733L38.6096 71.8993ZM37.7321 67.9243L41.9509 62.7212L41.1741 62.0913L36.9554 67.2945L37.7321 67.9243ZM41.9476 62.7252L49.4007 53.7252L48.6305 53.0873L41.1774 62.0873L41.9476 62.7252ZM49.0156 53.9062H54.3945V52.9062H49.0156V53.9062ZM50.0592 78.7149L41.6392 66.586L40.8178 67.1562L49.2377 79.2851L50.0592 78.7149ZM41.58 67.2267L44.621 64.2208L43.918 63.5096L40.877 66.5155L41.58 67.2267ZM43.8602 64.1524L54.4774 79.2871L55.296 78.7129L44.6789 63.5781L43.8602 64.1524ZM54.8867 78.5H49.6484V79.5H54.8867V78.5Z" fill="white" mask="url(#path-8-outside-2_60_758)"/>
</svg>
