<svg width="48" height="48" viewBox="0 0 48 48" fill="none" xmlns="http://www.w3.org/2000/svg">
<rect x="0.5" y="47.5" width="47" height="47" transform="rotate(-90 0.5 47.5)" fill="url(#paint0_linear_30_17)" stroke="black"/>
<rect x="0.5" y="47.5" width="47" height="47" transform="rotate(-90 0.5 47.5)" fill="url(#paint1_linear_30_17)" stroke="black"/>
<rect x="0.5" y="47.5" width="23" height="23" transform="rotate(-90 0.5 47.5)" fill="url(#paint2_linear_30_17)" stroke="black"/>
<mask id="path-4-inside-1_30_17" fill="white">
<path d="M18 25H23V30H18V25Z"/>
</mask>
<path d="M18 30H17V31H18V30ZM23 29H18V31H23V29ZM19 30V25H17V30H19Z" fill="white" mask="url(#path-4-inside-1_30_17)"/>
<mask id="path-6-inside-2_30_17" fill="white">
<path d="M37 1H47V11H37V1Z"/>
</mask>
<path d="M37 11H36V12H37V11ZM47 10H37V12H47V10ZM38 11V1H36V11H38Z" fill="white" mask="url(#path-6-inside-2_30_17)"/>
<mask id="path-8-outside-3_30_17" maskUnits="userSpaceOnUse" x="25" y="26" width="12" height="14" fill="black">
<rect fill="white" x="25" y="26" width="12" height="14"/>
<path d="M25.6825 26.901H27.7361V32.7897L33.2784 26.901H35.8515L31.0021 32.1959L35.9258 39H33.501L29.4928 33.7052L27.7361 35.6103V39H25.6825V26.901Z"/>
</mask>
<path d="M25.6825 26.901H27.7361V32.7897L33.2784 26.901H35.8515L31.0021 32.1959L35.9258 39H33.501L29.4928 33.7052L27.7361 35.6103V39H25.6825V26.901Z" fill="black"/>
<path d="M25.6825 26.901V26.401H25.1825V26.901H25.6825ZM27.7361 26.901H28.2361V26.401H27.7361V26.901ZM27.7361 32.7897H27.2361V34.0505L28.1002 33.1324L27.7361 32.7897ZM33.2784 26.901V26.401H33.0623L32.9143 26.5583L33.2784 26.901ZM35.8515 26.901L36.2203 27.2387L36.9875 26.401H35.8515V26.901ZM31.0021 32.1959L30.6333 31.8582L30.358 32.1588L30.597 32.489L31.0021 32.1959ZM35.9258 39V39.5H36.9048L36.3308 38.7069L35.9258 39ZM33.501 39L33.1024 39.3018L33.2524 39.5H33.501V39ZM29.4928 33.7052L29.8914 33.4034L29.5305 32.9266L29.1252 33.3662L29.4928 33.7052ZM27.7361 35.6103L27.3685 35.2714L27.2361 35.415V35.6103H27.7361ZM27.7361 39V39.5H28.2361V39H27.7361ZM25.6825 39H25.1825V39.5H25.6825V39ZM25.6825 27.401H27.7361V26.401H25.6825V27.401ZM27.2361 26.901V32.7897H28.2361V26.901H27.2361ZM28.1002 33.1324L33.6425 27.2437L32.9143 26.5583L27.372 32.447L28.1002 33.1324ZM33.2784 27.401H35.8515V26.401H33.2784V27.401ZM35.4828 26.5633L30.6333 31.8582L31.3708 32.5336L36.2203 27.2387L35.4828 26.5633ZM30.597 32.489L35.5207 39.2931L36.3308 38.7069L31.4071 31.9028L30.597 32.489ZM35.9258 38.5H33.501V39.5H35.9258V38.5ZM33.8997 38.6982L29.8914 33.4034L29.0941 34.0069L33.1024 39.3018L33.8997 38.6982ZM29.1252 33.3662L27.3685 35.2714L28.1037 35.9493L29.8604 34.0441L29.1252 33.3662ZM27.2361 35.6103V39H28.2361V35.6103H27.2361ZM27.7361 38.5H25.6825V39.5H27.7361V38.5ZM26.1825 39V26.901H25.1825V39H26.1825Z" fill="white" mask="url(#path-8-outside-3_30_17)"/>
<mask id="path-10-outside-4_30_17" maskUnits="userSpaceOnUse" x="33" y="33" width="11" height="14" fill="black">
<rect fill="white" x="33" y="33" width="11" height="14"/>
<path d="M33.6825 46V33.901H38.3835C40.0825 33.901 41.2371 34.2639 41.8474 34.9897C42.3918 35.6 42.6639 36.301 42.6639 37.0928C42.6639 38.0495 42.367 38.7588 41.7732 39.2206C41.5753 39.3691 41.2784 39.534 40.8825 39.7155C41.6412 39.8804 42.2351 40.2186 42.6639 40.7299C43.1093 41.2412 43.332 41.8763 43.332 42.6351C43.332 43.5918 42.9856 44.3918 42.2928 45.0351C41.6165 45.6784 40.5113 46 38.9773 46H33.6825ZM35.7361 38.9237H38.3093C39.7938 38.9237 40.5361 38.4206 40.5361 37.4144C40.5361 36.8371 40.3546 36.4247 39.9918 36.1773C39.6454 35.9134 39.0928 35.7814 38.334 35.7814H35.7361V38.9237ZM35.7361 44.1196H38.9278C39.7196 44.1196 40.3052 43.9959 40.6845 43.7485C41.0639 43.4845 41.2536 43.0392 41.2536 42.4124C41.2536 41.3402 40.3959 40.8041 38.6804 40.8041H35.7361V44.1196Z"/>
</mask>
<path d="M33.6825 46V33.901H38.3835C40.0825 33.901 41.2371 34.2639 41.8474 34.9897C42.3918 35.6 42.6639 36.301 42.6639 37.0928C42.6639 38.0495 42.367 38.7588 41.7732 39.2206C41.5753 39.3691 41.2784 39.534 40.8825 39.7155C41.6412 39.8804 42.2351 40.2186 42.6639 40.7299C43.1093 41.2412 43.332 41.8763 43.332 42.6351C43.332 43.5918 42.9856 44.3918 42.2928 45.0351C41.6165 45.6784 40.5113 46 38.9773 46H33.6825ZM35.7361 38.9237H38.3093C39.7938 38.9237 40.5361 38.4206 40.5361 37.4144C40.5361 36.8371 40.3546 36.4247 39.9918 36.1773C39.6454 35.9134 39.0928 35.7814 38.334 35.7814H35.7361V38.9237ZM35.7361 44.1196H38.9278C39.7196 44.1196 40.3052 43.9959 40.6845 43.7485C41.0639 43.4845 41.2536 43.0392 41.2536 42.4124C41.2536 41.3402 40.3959 40.8041 38.6804 40.8041H35.7361V44.1196Z" fill="black"/>
<path d="M33.6825 46H33.1825V46.5H33.6825V46ZM33.6825 33.901V33.401H33.1825V33.901H33.6825ZM41.8474 34.9897L41.4647 35.3115L41.4694 35.3171L41.4743 35.3225L41.8474 34.9897ZM41.7732 39.2206L42.0732 39.6207L42.0802 39.6153L41.7732 39.2206ZM40.8825 39.7155L40.6741 39.2609L39.3113 39.8856L40.7763 40.2041L40.8825 39.7155ZM42.6639 40.7299L42.2808 41.0513L42.2869 41.0583L42.6639 40.7299ZM42.2928 45.0351L41.9525 44.6686L41.9482 44.6728L42.2928 45.0351ZM35.7361 38.9237H35.2361V39.4237H35.7361V38.9237ZM39.9918 36.1773L39.6887 36.575L39.6992 36.583L39.7101 36.5904L39.9918 36.1773ZM35.7361 35.7814V35.2814H35.2361V35.7814H35.7361ZM35.7361 44.1196H35.2361V44.6196H35.7361V44.1196ZM40.6845 43.7485L40.9577 44.1673L40.9639 44.1632L40.9701 44.1589L40.6845 43.7485ZM35.7361 40.8041V40.3041H35.2361V40.8041H35.7361ZM34.1825 46V33.901H33.1825V46H34.1825ZM33.6825 34.401H38.3835V33.401H33.6825V34.401ZM38.3835 34.401C40.0447 34.401 41.0026 34.762 41.4647 35.3115L42.2301 34.6679C41.4716 33.7659 40.1202 33.401 38.3835 33.401V34.401ZM41.4743 35.3225C41.9399 35.8445 42.1639 36.4281 42.1639 37.0928H43.1639C43.1639 36.1739 42.8437 35.3555 42.2206 34.6569L41.4743 35.3225ZM42.1639 37.0928C42.1639 37.9411 41.9061 38.4838 41.4662 38.8259L42.0802 39.6153C42.8279 39.0337 43.1639 38.1578 43.1639 37.0928H42.1639ZM41.4732 38.8206C41.3174 38.9374 41.0581 39.085 40.6741 39.2609L41.0908 40.17C41.4986 39.9831 41.8331 39.8007 42.0732 39.6206L41.4732 38.8206ZM40.7763 40.2041C41.4452 40.3495 41.9344 40.6382 42.2808 41.0512L43.047 40.4086C42.5357 39.7989 41.8373 39.4114 40.9887 39.2269L40.7763 40.2041ZM42.2869 41.0583C42.6434 41.4676 42.832 41.9816 42.832 42.6351H43.832C43.832 41.771 43.5752 41.0148 43.041 40.4015L42.2869 41.0583ZM42.832 42.6351C42.832 43.4546 42.5421 44.1212 41.9526 44.6687L42.633 45.4014C43.4291 44.6623 43.832 43.7289 43.832 42.6351H42.832ZM41.9482 44.6728C41.4091 45.1856 40.461 45.5 38.9773 45.5V46.5C40.5617 46.5 41.8239 46.1711 42.6374 45.3973L41.9482 44.6728ZM38.9773 45.5H33.6825V46.5H38.9773V45.5ZM35.7361 39.4237H38.3093V38.4237H35.7361V39.4237ZM38.3093 39.4237C39.0924 39.4237 39.7677 39.2939 40.2599 38.9603C40.7868 38.6032 41.0361 38.0597 41.0361 37.4144H40.0361C40.0361 37.7754 39.9142 37.9865 39.6989 38.1325C39.4488 38.302 39.0107 38.4237 38.3093 38.4237V39.4237ZM41.0361 37.4144C41.0361 36.7294 40.8145 36.1331 40.2734 35.7642L39.7101 36.5904C39.8948 36.7164 40.0361 36.9448 40.0361 37.4144H41.0361ZM40.2948 35.7796C39.8172 35.4158 39.1296 35.2814 38.334 35.2814V36.2814C39.056 36.2814 39.4735 36.411 39.6887 36.575L40.2948 35.7796ZM38.334 35.2814H35.7361V36.2814H38.334V35.2814ZM35.2361 35.7814V38.9237H36.2361V35.7814H35.2361ZM35.7361 44.6196H38.9278V43.6196H35.7361V44.6196ZM38.9278 44.6196C39.7529 44.6196 40.4564 44.4941 40.9577 44.1673L40.4114 43.3296C40.1539 43.4976 39.6863 43.6196 38.9278 43.6196V44.6196ZM40.9701 44.1589C41.5288 43.7702 41.7536 43.1391 41.7536 42.4124H40.7536C40.7536 42.9392 40.5991 43.1988 40.399 43.338L40.9701 44.1589ZM41.7536 42.4124C41.7536 41.7164 41.4606 41.148 40.8753 40.7822C40.3291 40.4408 39.574 40.3041 38.6804 40.3041V41.3041C39.5022 41.3041 40.0337 41.4355 40.3453 41.6302C40.6177 41.8004 40.7536 42.0362 40.7536 42.4124H41.7536ZM38.6804 40.3041H35.7361V41.3041H38.6804V40.3041ZM35.2361 40.8041V44.1196H36.2361V40.8041H35.2361Z" fill="white" mask="url(#path-10-outside-4_30_17)"/>
<defs>
<linearGradient id="paint0_linear_30_17" x1="-7.42394e-08" y1="54.4469" x2="40.287" y2="96.8766" gradientUnits="userSpaceOnUse">
<stop stop-color="#73FE42"/>
<stop offset="1" stop-color="#2F99E7"/>
</linearGradient>
<linearGradient id="paint1_linear_30_17" x1="-7.42394e-08" y1="54.4469" x2="40.287" y2="96.8766" gradientUnits="userSpaceOnUse">
<stop stop-color="#73FE42"/>
<stop offset="1" stop-color="#2F99E7"/>
</linearGradient>
<linearGradient id="paint2_linear_30_17" x1="-3.71197e-08" y1="51.2234" x2="20.1435" y2="72.4383" gradientUnits="userSpaceOnUse">
<stop stop-color="#73FE42"/>
<stop offset="1" stop-color="#2F99E7"/>
</linearGradient>
</defs>
</svg>
